# xmcd
#
# Track frame offsets:
# 150
# 13701
# 24037
# 37575
# 48626
# 62546
# 73211
# 86804
# 98417
# 111723
# 122931
# 135538
# 145850
# 156092
# 166811
# 177223
# 187098
# 199055
# 209330
# 220753
# 234006
# 245368
# 260852
# 274027
# 284407
#
# Disc length: 3959 seconds
#
#
# Revision: 0
# Processed by: cddbd v1.5.2PL0 Copyright (c) Steve Scherf et al.
# Submitted via: FreeRIP 2.943 
#
DISCID=690f7519
DTITLE=The Four Aces - Th Swingin' Aces
DYEAR=1900
DGENRE=Oldies
TTITLE0=Love is a many splendored thing
TTITLE1=Pretty little poppy (Amapola)
TTITLE2=Bahama Mama
TTITLE3=Yes sir, that's my baby
TTITLE4=To love again
TTITLE5=How I wish I may, I wish I might
TTITLE6=I only know I love you
TTITLE7=Someone to love
TTITLE8=It's a woman world
TTITLE9=Saturday Swing out
TTITLE10=Sluefoot
TTITLE11=Tha gal with the yellow shoes
TTITLE12=Blueberry hill
TTITLE13=Heartaches
TTITLE14=Ti-pi-tin
TTITLE15=Bye bye blackbird
TTITLE16=Rock and roll rhapsody
TTITLE17=You driving me crazy
TTITLE18=Charlie was a boxer
TTITLE19=Roses of rio
TTITLE20=somebody else is taken my place
TTITLE21=Standing on the corner
TTITLE22=There I've said it again
TTITLE23=Organ groinders swing
TTITLE24=Ther is a Tavern in the town
EXTD=Original vynil recordings
EXTT0=
EXTT1=
EXTT2=
EXTT3=
EXTT4=
EXTT5=
EXTT6=
EXTT7=
EXTT8=
EXTT9=
EXTT10=
EXTT11=
EXTT12=
EXTT13=
EXTT14=
EXTT15=
EXTT16=
EXTT17=
EXTT18=
EXTT19=
EXTT20=
EXTT21=
EXTT22=
EXTT23=
EXTT24=
PLAYORDER=
